<?xml version="1.0" encoding="UTF-8" standalone="no"?>
<svg
   xmlns:dc="http://purl.org/dc/elements/1.1/"
   xmlns:cc="http://creativecommons.org/ns#"
   xmlns:rdf="http://www.w3.org/1999/02/22-rdf-syntax-ns#"
   xmlns:svg="http://www.w3.org/2000/svg"
   xmlns="http://www.w3.org/2000/svg"
   xmlns:xlink="http://www.w3.org/1999/xlink"
   xmlns:sodipodi="http://sodipodi.sourceforge.net/DTD/sodipodi-0.dtd"
   xmlns:inkscape="http://www.inkscape.org/namespaces/inkscape"
   viewBox="0 0 166.27676 79.999992"
   id="svg7654"
   version="1.1"
   inkscape:version="0.48.3.1 r9886"
   width="100%"
   height="100%"
   sodipodi:docname="O_paths_on_S_2.svg"
   style="enable-background:new">
  <metadata
     id="metadata7952">
    <rdf:RDF>
      <cc:Work
         rdf:about="">
        <dc:format>image/svg+xml</dc:format>
        <dc:type
           rdf:resource="http://purl.org/dc/dcmitype/StillImage" />
        <dc:title></dc:title>
      </cc:Work>
    </rdf:RDF>
  </metadata>
  <sodipodi:namedview
     pagecolor="#ffffff"
     bordercolor="#666666"
     borderopacity="1"
     objecttolerance="10"
     gridtolerance="10"
     guidetolerance="10"
     inkscape:pageopacity="0"
     inkscape:pageshadow="2"
     inkscape:window-width="1400"
     inkscape:window-height="1001"
     id="namedview7950"
     showgrid="true"
     fit-margin-top="0"
     fit-margin-left="0"
     fit-margin-right="0"
     fit-margin-bottom="0"
     inkscape:zoom="3.6875"
     inkscape:cx="73.806269"
     inkscape:cy="43.710416"
     inkscape:window-x="0"
     inkscape:window-y="29"
     inkscape:window-maximized="1"
     inkscape:current-layer="layer2">
    <inkscape:grid
       type="axonomgrid"
       id="grid7954"
       units="px"
       empspacing="5"
       visible="true"
       enabled="true"
       snapvisiblegridlinesonly="true"
       spacingy="8px"
       originx="0px"
       originy="-7.6293945e-06px" />
  </sodipodi:namedview>
  <defs
     id="defs7656">
    <linearGradient
       id="linearGradient7658">
      <stop
         offset="0"
         id="stop7660" />
    </linearGradient>
  </defs>
  <g
     inkscape:groupmode="layer"
     id="layer1"
     inkscape:label="Graphs"
     style="display:inline"
     transform="translate(0,-48)">
    <g
       id="g8481"
       transform="translate(-131.63586,44)">
      <g
         id="g8472">
        <path
           style="fill:none;stroke:#93a1a1;stroke-width:1px;stroke-linecap:round;stroke-linejoin:round;stroke-opacity:1"
           d="m 138.56406,8 6.92821,4 -6.92821,4 z"
           id="path7956"
           inkscape:connector-curvature="0" />
        <use
           x="0"
           y="0"
           xlink:href="#path7956"
           id="use8468"
           transform="translate(6.9282078,4)"
           width="128"
           height="128" />
        <use
           x="0"
           y="0"
           xlink:href="#path7956"
           id="use8470"
           transform="translate(4.6055102e-6,8)"
           width="128"
           height="128" />
      </g>
      <use
         height="128"
         width="128"
         transform="translate(13.856411,8)"
         id="use8477"
         xlink:href="#g8472"
         y="0"
         x="0" />
      <use
         height="128"
         width="128"
         transform="translate(4.6055102e-6,16)"
         id="use8479"
         xlink:href="#g8472"
         y="0"
         x="0" />
    </g>
    <use
       x="0"
       y="0"
       xlink:href="#g8481"
       id="use8489"
       transform="translate(41.569208,0)"
       width="128"
       height="128" />
    <use
       x="0"
       y="0"
       xlink:href="#g8481"
       id="use8491"
       transform="translate(83.138434,0)"
       width="128"
       height="128" />
    <use
       x="0"
       y="0"
       xlink:href="#g8481"
       id="use8493"
       transform="translate(124.70765,0)"
       width="128"
       height="128" />
    <use
       x="0"
       y="0"
       xlink:href="#g8481"
       id="use8495"
       transform="translate(4.7697245e-6,40)"
       width="128"
       height="128" />
    <use
       x="0"
       y="0"
       xlink:href="#g8481"
       id="use8497"
       transform="translate(41.569208,40)"
       width="128"
       height="128" />
    <use
       x="0"
       y="0"
       xlink:href="#g8481"
       id="use8499"
       transform="translate(83.138434,40)"
       width="128"
       height="128" />
    <use
       x="0"
       y="0"
       xlink:href="#g8481"
       id="use8501"
       transform="translate(124.70765,40)"
       width="128"
       height="128" />
  </g>
  <g
     inkscape:groupmode="layer"
     id="layer2"
     inkscape:label="Paths"
     style="display:inline"
     transform="translate(0,-48)">
    <path
       d="m 90.066653,52 v 32 l 6.9282,-4 v -8 l 6.928197,4 13.8564,-8 -6.9282,-4 -6.9282,4 v -8 l -6.928197,4 v -8 z"
       id="path7934"
       inkscape:connector-curvature="0"
       style="fill:none;stroke:#586e75;stroke-width:2;stroke-linecap:round;stroke-linejoin:round" />
    <path
       d="m 131.63587,92 v 32 l 6.9282,-4 v -8 l 6.9282,4 v -8 l 6.9282,4 6.9282,-4 -13.8564,-8 -6.9282,4 v -8 z"
       id="path7936"
       inkscape:connector-curvature="0"
       style="fill:none;stroke:#586e75;stroke-width:2;stroke-linecap:round;stroke-linejoin:round" />
    <path
       d="m 103.92305,100 -6.928197,4 v -8 l -6.9282,-4 v 16 l 6.9282,4 -6.9282,4 v 8 l 27.712797,-16 -6.9282,-4 -6.9282,4 z"
       id="path7938"
       inkscape:connector-curvature="0"
       style="fill:none;stroke:#586e75;stroke-width:2;stroke-linecap:round;stroke-linejoin:round" />
    <path
       d="m 6.9282032,92 v 16 l 6.9281998,4 -6.9281998,4 v 8 l 13.8563998,-8 v -8 l 6.9282,4 6.9282,-4 -13.8564,-8 -6.9282,4 v -8 z"
       id="path7940"
       inkscape:connector-curvature="0"
       style="fill:none;stroke:#586e75;stroke-width:2;stroke-linecap:round;stroke-linejoin:round" />
    <path
       d="m 131.63587,52 v 8 l 6.9282,4 -6.9282,4 v 16 l 6.9282,-4 v -8 l 6.9282,4 v -8 l 6.9282,4 6.9282,-4 z"
       id="path7942"
       inkscape:connector-curvature="0"
       style="fill:none;stroke:#586e75;stroke-width:2;stroke-linecap:round;stroke-linejoin:round" />
    <path
       d="m 48.497423,52 v 8 l 6.9282,4 -6.9282,4 6.9282,4 -6.9282,4 v 8 l 27.7128,-16 -6.9282,-4 -6.9282,4 v -8 z"
       id="path7944"
       inkscape:connector-curvature="0"
       style="fill:none;stroke:#586e75;stroke-width:2;stroke-linecap:round;stroke-linejoin:round" />
    <path
       d="m 48.497423,92 v 8 l 6.9282,4 -6.9282,4 6.9282,4 -6.9282,4 v 8 l 13.8564,-8 v -8 l 6.9282,4 6.9282,-4 z"
       id="path7946"
       inkscape:connector-curvature="0"
       style="fill:none;stroke:#586e75;stroke-width:2;stroke-linecap:round;stroke-linejoin:round" />
    <path
       d="m 6.9282032,52 v 8 l 6.9281998,4 -6.9281998,4 v 16 l 6.9281998,-4 v -8 l 6.9282,4 13.8564,-8 -6.9282,-4 -6.9282,4 v -8 z"
       id="path7948"
       inkscape:connector-curvature="0"
       style="fill:none;stroke:#586e75;stroke-width:2;stroke-linecap:round;stroke-linejoin:round" />
  </g>
</svg>
