<?xml version="1.0" encoding="UTF-8" standalone="no"?>
<svg
   xmlns:dc="http://purl.org/dc/elements/1.1/"
   xmlns:cc="http://creativecommons.org/ns#"
   xmlns:rdf="http://www.w3.org/1999/02/22-rdf-syntax-ns#"
   xmlns:svg="http://www.w3.org/2000/svg"
   xmlns="http://www.w3.org/2000/svg"
   xmlns:xlink="http://www.w3.org/1999/xlink"
   xmlns:sodipodi="http://sodipodi.sourceforge.net/DTD/sodipodi-0.dtd"
   xmlns:inkscape="http://www.inkscape.org/namespaces/inkscape"
   style="enable-background:new"
   sodipodi:docname="S_0_to_S_3.svg"
   height="100%"
   width="100%"
   inkscape:version="0.48.5 r10040"
   version="1.1"
   id="svg4300"
   viewBox="0 0 704 191.27275">
  <metadata
     id="metadata4486">
    <rdf:RDF>
      <cc:Work
         rdf:about="">
        <dc:format>image/svg+xml</dc:format>
        <dc:type
           rdf:resource="http://purl.org/dc/dcmitype/StillImage" />
      </cc:Work>
    </rdf:RDF>
  </metadata>
  <sodipodi:namedview
     pagecolor="#ffffff"
     bordercolor="#666666"
     borderopacity="1"
     objecttolerance="10"
     gridtolerance="10"
     guidetolerance="10"
     inkscape:pageopacity="0"
     inkscape:pageshadow="2"
     inkscape:window-width="1400"
     inkscape:window-height="1001"
     id="namedview4484"
     showgrid="true"
     inkscape:zoom="1.4140625"
     inkscape:cx="327.11263"
     inkscape:cy="44.027798"
     inkscape:window-x="0"
     inkscape:window-y="25"
     inkscape:window-maximized="1"
     inkscape:current-layer="g7199"
     fit-margin-top="0"
     fit-margin-left="0"
     fit-margin-right="0"
     fit-margin-bottom="0" />
  <defs
     id="defs4302" />
  <g
     id="g3016"
     transform="matrix(1.4943183,0,0,1.4943183,0,-1.9964498e-6)">
    <g
       style="fill:none;stroke:#000000;stroke-opacity:1"
       id="g7199">
      <path
         inkscape:connector-curvature="0"
         style="fill:none;stroke:#000000;stroke-width:2.67680587;stroke-linecap:round;stroke-linejoin:round;stroke-miterlimit:4;stroke-opacity:1;stroke-dasharray:none;marker-start:none;marker-mid:none;marker-end:none"
         d="m 27.7128,16 v 96 l 83.1384,-48 z"
         id="path4314" />
    </g>
  </g>
  <g
     id="g3010"
     transform="matrix(1.4943183,0,0,1.4943183,0,-1.9964498e-6)">
    <g
       id="g7215">
      <use
         x="0"
         y="0"
         xlink:href="#g7199"
         id="use7209"
         transform="matrix(0.5,0,0,0.5,166.27688,32)"
         width="512"
         height="128" />
      <use
         x="0"
         y="0"
         xlink:href="#g7199"
         id="use7211"
         transform="matrix(0.5,0,0,0.5,124.70766,8)"
         width="512"
         height="128" />
      <use
         x="0"
         y="0"
         xlink:href="#g7199"
         id="use7213"
         transform="matrix(0.5,0,0,0.5,124.70766,56)"
         width="512"
         height="128" />
    </g>
  </g>
  <g
     id="g3004"
     transform="matrix(1.4943183,0,0,1.4943183,0,-1.9964498e-6)">
    <g
       id="g7226">
      <use
         x="0"
         y="0"
         xlink:href="#g7215"
         id="use7220"
         width="512"
         height="128"
         transform="matrix(0.5,0,0,0.5,221.70252,32)" />
      <use
         x="0"
         y="0"
         xlink:href="#g7215"
         id="use7222"
         transform="matrix(0.5,0,0,0.5,180.13329,56)"
         width="512"
         height="128" />
      <use
         x="0"
         y="0"
         xlink:href="#g7215"
         id="use7224"
         transform="matrix(0.5,0,0,0.5,180.13329,8)"
         width="512"
         height="128" />
    </g>
  </g>
  <g
     id="g2998"
     transform="matrix(1.4943183,0,0,1.4943183,0,-1.9964498e-6)">
    <g
       id="g7237">
      <use
         x="0"
         y="0"
         xlink:href="#g7226"
         id="use7231"
         transform="matrix(0.5,0,0,0.5,277.12813,32)"
         width="512"
         height="128" />
      <use
         x="0"
         y="0"
         xlink:href="#g7226"
         id="use7233"
         transform="matrix(0.5,0,0,0.5,235.55891,56)"
         width="512"
         height="128" />
      <use
         x="0"
         y="0"
         xlink:href="#g7226"
         id="use7235"
         transform="matrix(0.5,0,0,0.5,235.55891,8)"
         width="512"
         height="128" />
    </g>
  </g>
</svg>
