<?xml version="1.0" encoding="UTF-8" standalone="no"?>
<svg
   xmlns:dc="http://purl.org/dc/elements/1.1/"
   xmlns:cc="http://creativecommons.org/ns#"
   xmlns:rdf="http://www.w3.org/1999/02/22-rdf-syntax-ns#"
   xmlns:svg="http://www.w3.org/2000/svg"
   xmlns="http://www.w3.org/2000/svg"
   xmlns:xlink="http://www.w3.org/1999/xlink"
   xmlns:sodipodi="http://sodipodi.sourceforge.net/DTD/sodipodi-0.dtd"
   xmlns:inkscape="http://www.inkscape.org/namespaces/inkscape"
   viewBox="0 0 471.11783 128"
   id="svg4300"
   version="1.1"
   inkscape:version="0.48.3.1 r9886"
   width="100%"
   height="100%"
   sodipodi:docname="hamiltonian_polytopic_self_similar_graphs_recursion.svg"
   style="enable-background:new">
  <metadata
     id="metadata4486">
    <rdf:RDF>
      <cc:Work
         rdf:about="">
        <dc:format>image/svg+xml</dc:format>
        <dc:type
           rdf:resource="http://purl.org/dc/dcmitype/StillImage" />
      </cc:Work>
    </rdf:RDF>
  </metadata>
  <sodipodi:namedview
     pagecolor="#ffffff"
     bordercolor="#666666"
     borderopacity="1"
     objecttolerance="10"
     gridtolerance="10"
     guidetolerance="10"
     inkscape:pageopacity="0"
     inkscape:pageshadow="2"
     inkscape:window-width="1400"
     inkscape:window-height="1001"
     id="namedview4484"
     showgrid="true"
     inkscape:zoom="1.9997864"
     inkscape:cx="283.47325"
     inkscape:cy="18.074301"
     inkscape:window-x="0"
     inkscape:window-y="29"
     inkscape:window-maximized="1"
     inkscape:current-layer="svg4300"
     fit-margin-top="0"
     fit-margin-left="0"
     fit-margin-right="0"
     fit-margin-bottom="0">
    <inkscape:grid
       type="axonomgrid"
       id="grid6427"
       units="px"
       empspacing="5"
       visible="true"
       enabled="true"
       snapvisiblegridlinesonly="true"
       originx="0px"
       spacingy="16px"
       originy="0px" />
  </sodipodi:namedview>
  <defs
     id="defs4302">
    <marker
       inkscape:stockid="DotS"
       orient="auto"
       refY="0"
       refX="0"
       id="DotS"
       style="overflow:visible">
      <path
         id="path7313"
         d="m -2.5,-1 c 0,2.76 -2.24,5 -5,5 -2.76,0 -5,-2.24 -5,-5 0,-2.76 2.24,-5 5,-5 2.76,0 5,2.24 5,5 z"
         style="fill-rule:evenodd;stroke:#000000;stroke-width:1pt"
         transform="matrix(0.2,0,0,0.2,1.48,0.2)"
         inkscape:connector-curvature="0" />
    </marker>
    <marker
       inkscape:stockid="DotM"
       orient="auto"
       refY="0"
       refX="0"
       id="DotM"
       style="overflow:visible">
      <path
         id="path7310"
         d="m -2.5,-1 c 0,2.76 -2.24,5 -5,5 -2.76,0 -5,-2.24 -5,-5 0,-2.76 2.24,-5 5,-5 2.76,0 5,2.24 5,5 z"
         style="fill-rule:evenodd;stroke:#000000;stroke-width:1pt"
         transform="matrix(0.4,0,0,0.4,2.96,0.4)"
         inkscape:connector-curvature="0" />
    </marker>
    <marker
       inkscape:stockid="DotL"
       orient="auto"
       refY="0"
       refX="0"
       id="DotL"
       style="overflow:visible">
      <path
         id="path7307"
         d="m -2.5,-1 c 0,2.76 -2.24,5 -5,5 -2.76,0 -5,-2.24 -5,-5 0,-2.76 2.24,-5 5,-5 2.76,0 5,2.24 5,5 z"
         style="fill-rule:evenodd;stroke:#000000;stroke-width:1pt"
         transform="matrix(0.8,0,0,0.8,5.92,0.8)"
         inkscape:connector-curvature="0" />
    </marker>
    <marker
       inkscape:stockid="Arrow1Lstart"
       orient="auto"
       refY="0"
       refX="0"
       id="Arrow1Lstart"
       style="overflow:visible">
      <path
         id="path7246"
         d="M 0,0 5,-5 -12.5,0 5,5 0,0 z"
         style="fill-rule:evenodd;stroke:#000000;stroke-width:1pt"
         transform="matrix(0.8,0,0,0.8,10,0)"
         inkscape:connector-curvature="0" />
    </marker>
    <linearGradient
       id="linearGradient4304">
      <stop
         offset="0"
         id="stop4306" />
    </linearGradient>
  </defs>
  <g
     id="g7199">
    <path
       id="path4314"
       d="m 27.7128,16 v 96 l 83.1384,-48 z"
       style="fill:none;stroke:#586e75;stroke-width:8;stroke-linecap:round;stroke-linejoin:round;stroke-miterlimit:4;stroke-opacity:1;stroke-dasharray:none;marker-start:none;marker-mid:none;marker-end:none"
       inkscape:connector-curvature="0" />
  </g>
  <g
     id="g7215">
    <use
       height="128"
       width="512"
       transform="matrix(0.5,0,0,0.5,166.27688,32)"
       id="use7209"
       xlink:href="#g7199"
       y="0"
       x="0" />
    <use
       height="128"
       width="512"
       transform="matrix(0.5,0,0,0.5,124.70766,8)"
       id="use7211"
       xlink:href="#g7199"
       y="0"
       x="0" />
    <use
       height="128"
       width="512"
       transform="matrix(0.5,0,0,0.5,124.70766,56)"
       id="use7213"
       xlink:href="#g7199"
       y="0"
       x="0" />
  </g>
  <g
     id="g7226">
    <use
       transform="matrix(0.5,0,0,0.5,221.70252,32)"
       height="128"
       width="512"
       id="use7220"
       xlink:href="#g7215"
       y="0"
       x="0" />
    <use
       height="128"
       width="512"
       transform="matrix(0.5,0,0,0.5,180.13329,56)"
       id="use7222"
       xlink:href="#g7215"
       y="0"
       x="0" />
    <use
       height="128"
       width="512"
       transform="matrix(0.5,0,0,0.5,180.13329,8)"
       id="use7224"
       xlink:href="#g7215"
       y="0"
       x="0" />
  </g>
  <g
     id="g7237">
    <use
       height="128"
       width="512"
       transform="matrix(0.5,0,0,0.5,277.12813,32)"
       id="use7231"
       xlink:href="#g7226"
       y="0"
       x="0" />
    <use
       height="128"
       width="512"
       transform="matrix(0.5,0,0,0.5,235.55891,56)"
       id="use7233"
       xlink:href="#g7226"
       y="0"
       x="0" />
    <use
       height="128"
       width="512"
       transform="matrix(0.5,0,0,0.5,235.55891,8)"
       id="use7235"
       xlink:href="#g7226"
       y="0"
       x="0" />
  </g>
</svg>
